<?xml version="1.0" encoding="UTF-8"?>
<!-- Generated by Pixelmator Pro 4.0 -->
<svg width="613" height="684" viewBox="0 0 613 684" xmlns="http://www.w3.org/2000/svg">
    <path id="Path" fill="#000000" fill-rule="evenodd" stroke="none" d="M 296.965515 672.859497 L 326.757935 672.859497 L 326.757935 14.207336 L 296.965515 14.207336 L 296.965515 672.859497 Z"/>
    <path id="path1" fill="#000000" fill-rule="evenodd" stroke="#000000" stroke-width="7" d="M 82.355904 113.358032 L 66.830101 129.205994 L 549.153992 588.325989 L 564.679993 572.478027 L 82.355904 113.358032 Z"/>
    <path id="path2" fill="#000000" fill-rule="evenodd" stroke="#000000" stroke-width="7" d="M 542.684021 130.679993 L 527.15802 114.833008 L 44.834 573.952026 L 60.359798 589.799988 L 542.684021 130.679993 Z"/>
    <g id="g1">
        <path id="path3" fill="#b6ff7c" stroke="none" d="M 134 364 C 72.332161 332.544769 93 336 93 336 C 93 336 146.043655 298.728638 180 283 C 246.463058 252.214172 294 249 294 249 L 350.327789 252.057587 L 448 289 L 504 318 L 525 336 L 451.710968 380.041046 L 308 414 C 308 414 182.887238 388.936157 134 364 Z"/>
        <path id="path4" fill="#b6ff7c" fill-rule="evenodd" stroke="none" d="M 351.578125 229.09375 C 353.932129 229.219376 356.256042 229.709641 358.464478 230.544937 L 456.132813 267.484375 L 458.578125 268.578125 L 514.578125 297.578125 C 516.149658 298.390717 517.62323 299.384277 518.968201 300.537109 L 539.96875 318.539063 C 551.882629 328.749481 550.297302 347.631592 536.846802 355.714294 L 463.554688 399.757813 C 461.522766 400.97821 459.31073 401.878632 457.000214 402.424622 L 313.289063 436.382813 C 310.070343 437.144196 306.725281 437.201599 303.482178 436.55191 L 302.875 436.429688 L 301.203125 436.085938 L 294.945313 434.78125 L 272.75 429.9375 C 249.774979 424.75589 226.791367 419.114441 205.266922 413.183594 C 170.507797 403.606079 142.928497 394.224335 124.427086 384.932861 L 123.546875 384.492188 C 100.086662 372.520905 85.984657 364.35556 78.721809 358.643982 C 76.374924 356.79837 74.410332 354.980835 72.689079 352.908844 C 69.050789 348.529236 66.603821 343.515808 66.672729 336.573578 C 66.774704 326.30014 72.915802 318.62323 80.837975 315.09491 L 84.570313 313.859375 L 93.859375 307.554688 C 104.530769 300.382965 115.584091 293.211212 126.467461 286.492767 L 138.6875 279.109375 C 150.535507 272.120605 161.150757 266.383423 170.333054 262.130157 C 200.901932 247.970596 230.014648 238.203918 256.760254 232.042389 C 266.240784 229.858307 274.788605 228.281158 282.291962 227.212875 L 289.460938 226.320313 L 291.5 226.125 L 292.445313 226.054688 L 295.25 226.03125 Z M 294 249 C 294 249 246.463058 252.214172 180 283 C 146.043655 298.728638 93 336 93 336 C 93 336 72.332161 332.544769 134 364 C 182.887238 388.936157 308 414 308 414 L 451.710938 380.039063 L 525 336 L 504 318 L 448 289 L 350.328125 252.054688 L 294 249 Z M 90.109375 358.8125 L 91.773438 358.96875 L 89.210938 358.6875 Z"/>
    </g>
    <path id="path5" fill="none" stroke="#000000" stroke-width="19.77" stroke-linecap="square" d="M 595.015991 299.470001 C 588.447998 293.170013 488.475006 181.569 305.703003 175.807983 C 138.156006 170.526978 24.6187 291.181 16.3906 301.993011"/>
    <path id="path6" fill="none" stroke="#000000" stroke-width="19.77" stroke-linecap="square" d="M 595.015991 388.681 C 588.447998 394.980988 488.475006 506.58197 305.703003 512.343018 C 138.156006 517.624023 24.6187 396.970001 16.3906 386.15799"/>
    <path id="path7" fill="none" stroke="#000000" stroke-width="27.4212" stroke-linecap="round" d="M 313.152008 434.631012 C 301.617004 434.727997 295.420013 434.634003 290.623993 434.289001 C 286.984985 434.027008 280.664001 433.425995 276.575989 432.951996 C 272.489014 432.477997 266.277008 431.634003 262.770996 431.075989 C 259.265991 430.518005 252.936996 429.339996 248.707001 428.457001 C 244.477005 427.575012 238.151001 426.136993 234.651001 425.261993 C 231.149994 424.385986 225.063004 422.740997 221.125 421.605011 C 217.186996 420.468994 210.026001 418.208008 205.212006 416.580994 C 200.399002 414.953003 179.328995 406.821991 175.246002 405.080994 C 171.162994 403.339996 165.076996 400.622009 161.720001 399.040985 C 158.363998 397.459991 153.112 394.893005 150.048996 393.334991 C 146.985992 391.778015 141.141006 388.69101 137.059998 386.473999 C 132.979996 384.257996 126.296997 380.467987 122.209 378.052002 C 118.121002 375.635986 110.946999 371.195007 106.265999 368.183014 C 101.584999 365.171997 95.192703 360.924988 92.060402 358.746002 C 88.928001 356.566986 83.288803 352.502991 79.528198 349.713989 C 75.767998 346.924988 70.286003 342.688995 67.345703 340.299011 C 64.405701 337.908997 62 335.735992 62 335.467987 C 62 335.200989 64.0065 333.317993 66.459 331.28299 C 68.911499 329.247986 73.480904 325.653015 76.6129 323.292999 C 79.745598 320.93399 85.304497 316.868988 88.967003 314.260986 C 92.629402 311.653015 100.530998 306.376007 106.527 302.533997 C 112.523003 298.692993 120.530998 293.740997 124.323997 291.529999 C 128.115997 289.319 133.785004 286.108002 136.919998 284.394989 C 140.056 282.682007 145.546005 279.794006 149.119995 277.97699 C 152.694 276.160004 173.408997 266.503998 177.281006 264.872009 C 181.154007 263.23999 186.554993 261.046997 189.283997 259.998993 C 192.013 258.950012 195.460007 257.65799 196.945007 257.127014 C 198.429001 256.596008 202.518005 255.187988 206.031006 253.998993 C 209.544998 252.809998 215.630997 250.872009 219.557007 249.69101 C 223.483002 248.510986 229.466995 246.847992 232.856995 245.997009 C 236.246994 245.145996 241.401993 243.933014 244.313995 243.300995 C 247.225006 242.669006 252.567001 241.608002 256.184998 240.944 C 259.802002 240.278992 265.863007 239.29599 269.653015 238.759003 C 273.442993 238.221985 280.36499 237.440002 285.035004 237.020996 C 292.404999 236.359985 295.697998 236.26001 309.970001 236.26001 C 322.630005 236.26001 328.121002 236.397003 333.838013 236.856995 C 337.923004 237.186005 343.651001 237.753998 346.567993 238.121002 C 349.485992 238.488007 354.259003 239.166992 357.177002 239.628998 C 360.093994 240.09201 364.868011 240.928986 367.785004 241.489014 C 370.701996 242.049988 374.998993 242.933014 377.332001 243.451996 C 379.665985 243.971008 383.723999 244.921997 386.348999 245.565002 C 388.975006 246.209015 392.914001 247.227997 395.101013 247.82901 C 397.289001 248.431 403.852997 250.449005 409.687988 252.313995 C 415.522003 254.178986 423.533997 256.928986 427.490997 258.424988 C 431.447998 259.92099 438.609009 262.789001 443.403015 264.799988 C 448.197998 266.809998 455.220001 269.921997 459.007996 271.714996 C 462.79599 273.507996 468.286011 276.187012 471.207001 277.666992 C 474.130005 279.14801 479.737 282.102997 483.670013 284.234985 C 487.60199 286.365997 494.403992 290.231995 498.786987 292.826996 C 503.169006 295.42099 510.93399 300.246002 516.04303 303.549011 C 521.153015 306.852997 528.086975 311.503998 531.453003 313.885986 C 534.817993 316.268005 539.947021 320.015991 542.848999 322.216003 C 545.752014 324.415009 550.572998 328.178986 553.562988 330.57901 C 556.552979 332.979004 559 335.143005 559 335.388 C 559 335.631989 557.085999 337.411011 554.745972 339.341003 C 552.406006 341.270996 547.632019 345.01001 544.135986 347.649994 C 540.640991 350.290009 534.747009 354.608002 531.038025 357.244995 C 527.330017 359.881012 518.559021 365.664001 511.546997 370.096008 C 504.535004 374.528015 495.981995 379.756989 492.540985 381.71701 C 489.098999 383.677002 482.535004 387.256012 477.95401 389.669006 C 473.372986 392.082001 420.256012 415.042999 416.317993 416.394012 C 412.380005 417.744995 406.412994 419.666992 403.058014 420.665009 C 399.703003 421.662994 393.973999 423.272003 390.328003 424.240997 C 386.681 425.209991 380.411011 426.714996 376.393005 427.585999 C 372.375 428.458008 366.755005 429.593994 363.903992 430.112 C 361.053009 430.628998 355.867004 431.457001 352.378998 431.950989 C 348.891998 432.446014 342.218994 433.221008 337.550995 433.674011 C 330.334991 434.373993 326.68399 434.516998 313.152008 434.631012 Z"/>
    <path id="path8" fill="#7b39d0" fill-rule="evenodd" stroke="none" d="M 410.647003 336.569 C 410.647003 282.490997 364.506012 238.653015 307.587006 238.653015 C 250.669006 238.653015 204.526993 282.490997 204.526993 336.569 C 204.526993 390.645996 250.669006 434.484009 307.587006 434.484009 C 364.506012 434.484009 410.647003 390.645996 410.647003 336.569 Z"/>
    <path id="path9" fill="#000000" fill-rule="evenodd" stroke="#000000" stroke-width="6" d="M 428.031006 336.569 C 428.031006 272.884003 373.96701 221.518005 307.588013 221.518005 C 241.209 221.518005 187.145004 272.884003 187.145004 336.569 C 187.145004 400.252991 241.209 451.618988 307.588013 451.618988 C 373.96701 451.618988 428.031006 400.252991 428.031006 336.569 Z M 307.588013 238.653015 C 364.506012 238.653015 410.64801 282.490997 410.64801 336.569 C 410.64801 390.645996 364.506012 434.484009 307.588013 434.484009 C 250.669998 434.484009 204.528 390.645996 204.528 336.569 C 204.528 282.490997 250.669998 238.653015 307.588013 238.653015 Z"/>
    <path id="path10" fill="#000000" fill-rule="evenodd" stroke="none" d="M 368.429993 336.567993 C 368.429993 302.769989 340.634003 275.371002 306.346008 275.371002 C 272.058014 275.371002 244.261993 302.769989 244.261993 336.567993 C 244.261993 370.367004 272.058014 397.765991 306.346008 397.765991 C 340.634003 397.765991 368.429993 370.367004 368.429993 336.567993 Z"/>
    <path id="path11" fill="#ffffff" fill-rule="evenodd" stroke="none" opacity="0.841616" d="M 375.880005 302.298004 C 375.880005 286.075012 362.537994 272.923004 346.079987 272.923004 C 329.621002 272.923004 316.278992 286.075012 316.278992 302.298004 C 316.278992 318.520996 329.621002 331.673004 346.079987 331.673004 C 362.537994 331.673004 375.880005 318.520996 375.880005 302.298004 Z"/>
</svg>
